<?xml version="1.0"?>
<svg xmlns="http://www.w3.org/2000/svg" viewBox="0 0 64 64" width="512px" height="512px" class=""><g><g id="Filled_outline" data-name="Filled outline"><path d="M59,21c0-9.856-6.376-18-15-18a15.483,15.483,0,0,0-9,3,5.394,5.394,0,0,1-6,0,15.483,15.483,0,0,0-9-3C11.376,3,5,11.144,5,21c0,4.48,2.21,8.492,4,12,8.52,16.7,10.588,28,16,28,3.346,0,4-2.192,4-10,0-8.923.769-11,3-11s3,2.077,3,11c0,7.808.654,10,4,10,5.412,0,7.48-11.3,16-28C56.79,29.492,59,25.48,59,21Z" style="fill:#FFFFFF" data-original="#F0F0D9" class="active-path" data-old_color="#F0F0D9"/><path d="M38.363,9.654A17.317,17.317,0,0,1,28.4,6.8l1.2-1.6c.245.183,6.1,4.436,15.467,1.312l.633,1.9A23.116,23.116,0,0,1,38.363,9.654Z" style="fill:#aabece" data-original="#AABECE" class=""/><path d="M10,21.071l-2-.142C8.846,9.12,16.873,6,21,6l0,2C20.592,8,10.916,8.212,10,21.071Z" style="fill:#fafafa" data-original="#FAFAFA" class=""/><rect x="8" y="23" width="2" height="2" style="fill:#fafafa" data-original="#FAFAFA" class=""/><path d="M50.814,33.581l-1.628-1.162C53.905,25.812,54,21.043,54,21l2,0C56,21.217,55.941,26.4,50.814,33.581Z" style="fill:#aabece" data-original="#AABECE" class=""/><path d="M8.109,33.455c2.856,5.6,5.022,10.675,6.762,14.756C18.538,56.81,20.751,62,25,62c4.507,0,5-3.523,5-11,0-9.248.906-10,2-10s2,.752,2,10c0,7.477.493,11,5,11,4.249,0,6.462-5.19,10.129-13.789,1.74-4.081,3.906-9.159,6.762-14.756l.335-.656C58,29.352,60,25.444,60,21,60,10.346,52.972,2,44,2a16.564,16.564,0,0,0-9.607,3.206,4.41,4.41,0,0,1-4.786,0A16.564,16.564,0,0,0,20,2C11.028,2,4,10.346,4,21c0,4.444,2.005,8.352,3.774,11.8ZM20,4a14.474,14.474,0,0,1,8.393,2.794l0,0h0a17.317,17.317,0,0,0,9.967,2.857A23.116,23.116,0,0,0,45.7,8.41l-.633-1.9a19.675,19.675,0,0,1-10.28.783,4.853,4.853,0,0,0,.819-.5A14.474,14.474,0,0,1,44,4c7.851,0,14,7.467,14,17,0,3.961-1.888,7.64-3.553,10.886l-.338.659c-2.887,5.66-5.067,10.773-6.819,14.881C44.061,55,41.928,60,39,60c-2.177,0-3-.776-3-9,0-8.462-.556-12-4-12s-4,3.538-4,12c0,8.224-.823,9-3,9-2.928,0-5.061-5-8.29-12.574-1.752-4.108-3.932-9.221-6.819-14.881l-.338-.659C7.888,28.64,6,24.961,6,21,6,11.467,12.149,4,20,4Z" data-original="#000000" class="" style="fill:#3482C4" data-old_color="#000000"/><path d="M21,8l0-2C16.873,6,8.846,9.12,8,20.929l2,.142C10.916,8.212,20.592,8,21,8Z" data-original="#000000" class="" style="fill:#3482C4" data-old_color="#000000"/><rect x="8" y="23" width="2" height="2" data-original="#000000" class="" style="fill:#3482C4" data-old_color="#000000"/><path d="M56,21l-2,0c0,.047-.095,4.816-4.814,11.423l1.628,1.162C55.941,26.4,56,21.217,56,21Z" data-original="#000000" class="" style="fill:#3482C4" data-old_color="#000000"/></g></g> </svg>
